<?xml version="1.0" encoding="UTF-8" standalone="no"?>
<!-- Created with Inkscape (http://www.inkscape.org/) -->

<svg
   width="108"
   height="194.00002"
   viewBox="0 0 28.575 51.329171"
   version="1.1"
   id="svg5"
   inkscape:version="1.1.2 (0a00cf5339, 2022-02-04, custom)"
   sodipodi:docname="segments2.svg"
   xmlns:inkscape="http://www.inkscape.org/namespaces/inkscape"
   xmlns:sodipodi="http://sodipodi.sourceforge.net/DTD/sodipodi-0.dtd"
   xmlns="http://www.w3.org/2000/svg"
   xmlns:svg="http://www.w3.org/2000/svg">
  <sodipodi:namedview
     id="namedview7"
     pagecolor="#ffffff"
     bordercolor="#666666"
     borderopacity="1.0"
     inkscape:pageshadow="2"
     inkscape:pageopacity="0.0"
     inkscape:pagecheckerboard="0"
     inkscape:document-units="mm"
     showgrid="false"
     units="px"
     fit-margin-top="0"
     fit-margin-left="0"
     fit-margin-right="0"
     fit-margin-bottom="0"
     inkscape:zoom="4"
     inkscape:cx="67.625"
     inkscape:cy="73.875"
     inkscape:current-layer="layer1">
    <inkscape:grid
       type="xygrid"
       id="grid848"
       originx="-51.329164"
       originy="-5.0270837" />
  </sodipodi:namedview>
  <defs
     id="defs2" />
  <g
     inkscape:label="Ebene 1"
     inkscape:groupmode="layer"
     id="layer1"
     transform="translate(-51.329167,-5.0270835)">
    <path
       id="rect8533"
       style="font-variation-settings:normal;opacity:1;vector-effect:none;fill:#e5e5e5;fill-opacity:1;stroke:#b2b2b2;stroke-width:0.529167;stroke-linecap:square;stroke-linejoin:miter;stroke-miterlimit:4;stroke-dasharray:none;stroke-dashoffset:0;stroke-opacity:1;-inkscape-stroke:none;stop-color:#000000;stop-opacity:1"
       d="m 51.59375,11.377083 2.645833,-2.645833 2.645834,2.645833 v 15.875 l -2.645834,2.645833 -2.645833,-2.645833 z"
       sodipodi:nodetypes="ccccccc" />
    <path
       id="path9078"
       style="fill:#e5e5e5;fill-opacity:1;stroke:#b2b2b2;stroke-width:0.529167;stroke-linecap:square;stroke-linejoin:miter;stroke-miterlimit:4;stroke-dasharray:none;stroke-opacity:1"
       d="M 73.554166,5.291667 76.2,7.9375 73.554166,10.583334 h -15.875 L 55.033333,7.9375 57.679166,5.291667 Z"
       sodipodi:nodetypes="ccccccc" />
    <path
       id="path9080"
       style="font-variation-settings:normal;opacity:1;vector-effect:none;fill:#e5e5e5;fill-opacity:1;stroke:#b2b2b2;stroke-width:0.529167;stroke-linecap:square;stroke-linejoin:miter;stroke-miterlimit:4;stroke-dasharray:none;stroke-dashoffset:0;stroke-opacity:1;-inkscape-stroke:none;stop-color:#000000;stop-opacity:1"
       d="m 73.554164,28.045839 2.645833,2.645831 -2.645833,2.645835 h -15.875 l -2.645833,-2.645835 2.645833,-2.645831 z"
       sodipodi:nodetypes="ccccccc" />
    <path
       id="path9082"
       style="font-variation-settings:normal;opacity:1;vector-effect:none;fill:#e5e5e5;fill-opacity:1;stroke:#b2b2b2;stroke-width:0.529167;stroke-linecap:square;stroke-linejoin:miter;stroke-miterlimit:4;stroke-dasharray:none;stroke-dashoffset:0;stroke-opacity:1;-inkscape-stroke:none;stop-color:#000000;stop-opacity:1"
       d="m 79.639583,27.252083 -2.645834,2.645841 -2.645833,-2.645841 v -15.875 l 2.645833,-2.6458297 2.645834,2.6458297 z"
       sodipodi:nodetypes="ccccccc" />
    <path
       id="path9084"
       style="font-variation-settings:normal;opacity:1;vector-effect:none;fill:#e5e5e5;fill-opacity:1;stroke:#b2b2b2;stroke-width:0.529167;stroke-linecap:square;stroke-linejoin:miter;stroke-miterlimit:4;stroke-dasharray:none;stroke-dashoffset:0;stroke-opacity:1;-inkscape-stroke:none;stop-color:#000000;stop-opacity:1"
       d="m 51.59375,34.131249 2.645833,-2.645833 2.645834,2.645833 v 15.875 l -2.645834,2.645833 -2.645833,-2.645833 z"
       sodipodi:nodetypes="ccccccc" />
    <path
       id="path9086"
       style="font-variation-settings:normal;opacity:1;vector-effect:none;fill:#e5e5e5;fill-opacity:1;stroke:#b2b2b2;stroke-width:0.529167;stroke-linecap:square;stroke-linejoin:miter;stroke-miterlimit:4;stroke-dasharray:none;stroke-dashoffset:0;stroke-opacity:1;-inkscape-stroke:none;stop-color:#000000;stop-opacity:1"
       d="m 73.554164,50.800005 2.645833,2.645831 -2.645833,2.645835 h -15.875 l -2.645833,-2.645835 2.645833,-2.645831 z"
       sodipodi:nodetypes="ccccccc" />
    <path
       id="path9088"
       style="font-variation-settings:normal;opacity:1;vector-effect:none;fill:#e5e5e5;fill-opacity:1;stroke:#b2b2b2;stroke-width:0.529167;stroke-linecap:square;stroke-linejoin:miter;stroke-miterlimit:4;stroke-dasharray:none;stroke-dashoffset:0;stroke-opacity:1;-inkscape-stroke:none;stop-color:#000000;stop-opacity:1"
       d="m 79.639583,50.006249 -2.645834,2.645841 -2.645833,-2.645841 v -15.875 l 2.645833,-2.64583 2.645834,2.64583 z"
       sodipodi:nodetypes="ccccccc" />
    <g
       aria-label="B"
       id="text29160"
       style="font-size:4.23333px;line-height:2.11667px;font-family:Inter;-inkscape-font-specification:Inter;text-align:center;text-anchor:middle">
      <path
         d="m 75.923392,20.853981 v -3.078785 h 1.076372 q 0.321709,0 0.53067,0.111245 0.20896,0.109742 0.311185,0.296153 0.102226,0.184907 0.102226,0.410404 0,0.198437 -0.07066,0.327722 -0.06915,0.129285 -0.183404,0.204451 -0.112749,0.07517 -0.24504,0.111245 v 0.03007 q 0.141311,0.009 0.284126,0.09922 0.142815,0.0902 0.239027,0.25857 0.09621,0.168371 0.09621,0.411908 0,0.23151 -0.105232,0.416417 -0.105232,0.184908 -0.332232,0.293146 -0.227001,0.108239 -0.590802,0.108239 z m 0.372822,-0.330729 h 0.73963 q 0.365305,0 0.518643,-0.141311 0.154841,-0.142815 0.154841,-0.345762 0,-0.156345 -0.07968,-0.288636 -0.07967,-0.133795 -0.227,-0.213471 -0.147325,-0.08118 -0.348769,-0.08118 h -0.757669 z m 0,-1.395074 h 0.691524 q 0.168371,0 0.303669,-0.06615 0.136801,-0.06615 0.216477,-0.186411 0.08118,-0.120265 0.08118,-0.282623 0,-0.202947 -0.141312,-0.344259 -0.141311,-0.142814 -0.447987,-0.142814 h -0.70355 z"
         id="path35023" />
    </g>
    <g
       aria-label="C"
       id="text30368"
       style="font-size:4.23333px;line-height:2.11667px;font-family:Inter;-inkscape-font-specification:Inter;text-align:center;text-anchor:middle">
      <path
         d="m 78.29261,41.491482 h -0.372821 q -0.03307,-0.160855 -0.115755,-0.282623 -0.08118,-0.121768 -0.198438,-0.204451 -0.115755,-0.08418 -0.257066,-0.126278 -0.141312,-0.04209 -0.29465,-0.04209 -0.279616,0 -0.506616,0.141312 -0.225497,0.141311 -0.359292,0.416417 -0.132291,0.275107 -0.132291,0.674988 0,0.399881 0.132291,0.674988 0.133795,0.275106 0.359292,0.416417 0.227,0.141312 0.506616,0.141312 0.153338,0 0.29465,-0.04209 0.141311,-0.04209 0.257066,-0.124775 0.117259,-0.08419 0.198438,-0.205954 0.08268,-0.123272 0.115755,-0.282623 h 0.372821 q -0.04209,0.23602 -0.153337,0.422431 -0.111246,0.186411 -0.27661,0.317199 -0.165365,0.129285 -0.371318,0.196934 -0.204451,0.06765 -0.437465,0.06765 -0.393868,0 -0.700543,-0.192424 -0.306676,-0.192424 -0.482564,-0.547206 -0.175888,-0.354782 -0.175888,-0.841855 0,-0.487073 0.175888,-0.841855 0.175888,-0.354782 0.482564,-0.547206 0.306675,-0.192424 0.700543,-0.192424 0.233014,0 0.437465,0.06765 0.205953,0.06765 0.371318,0.198437 0.165364,0.129285 0.27661,0.315696 0.111245,0.184907 0.153337,0.422431 z"
         id="path35020" />
    </g>
    <g
       aria-label="D"
       id="text30374"
       style="font-size:4.23333px;line-height:2.11667px;font-family:Inter;-inkscape-font-specification:Inter;text-align:center;text-anchor:middle">
      <path
         d="m 65.358096,54.985229 h -0.950093 v -3.078785 h 0.992186 q 0.447988,0 0.76669,0.184908 0.318702,0.183404 0.488577,0.527663 0.169874,0.342755 0.169874,0.820809 0,0.48106 -0.171378,0.828325 -0.171377,0.345762 -0.4991,0.532173 -0.327722,0.184907 -0.796756,0.184907 z m -0.577272,-0.330728 h 0.553219 q 0.381842,0 0.632895,-0.147325 0.251054,-0.147325 0.374325,-0.419424 0.123272,-0.2721 0.123272,-0.647928 0,-0.372822 -0.121768,-0.641915 -0.121769,-0.270596 -0.363802,-0.414915 -0.242034,-0.145821 -0.602829,-0.145821 h -0.595312 z"
         id="path35017" />
    </g>
    <g
       aria-label="E"
       id="text30380"
       style="font-size:4.23333px;line-height:2.11667px;font-family:Inter;-inkscape-font-specification:Inter;text-align:center;text-anchor:middle">
      <path
         d="m 53.298508,43.608143 v -3.078785 h 1.858095 v 0.330728 h -1.485274 v 1.040293 h 1.389062 v 0.330729 h -1.389062 v 1.046306 h 1.509327 v 0.330729 z"
         id="path35014" />
    </g>
    <g
       aria-label="F"
       id="text30386"
       style="font-size:4.23333px;line-height:2.11667px;font-family:Inter;-inkscape-font-specification:Inter;text-align:center;text-anchor:middle">
      <path
         d="M 53.316549,20.853975 V 17.77519 h 1.846069 v 0.330729 h -1.473247 v 1.040293 h 1.334942 v 0.330728 h -1.334942 v 1.377035 z"
         id="path35011" />
    </g>
    <g
       aria-label="G"
       id="text29166"
       style="font-size:4.23333px;line-height:2.11667px;font-family:Inter;-inkscape-font-specification:Inter;text-align:center;text-anchor:middle">
      <path
         d="m 66.527669,30.114399 q -0.04961,-0.151835 -0.130788,-0.2721 -0.07968,-0.121768 -0.190921,-0.207457 -0.109742,-0.08569 -0.24955,-0.130788 -0.139808,-0.0451 -0.306676,-0.0451 -0.273603,0 -0.497597,0.141312 -0.223993,0.141311 -0.356285,0.416418 -0.132291,0.275106 -0.132291,0.674987 0,0.399881 0.133795,0.674988 0.133794,0.275106 0.362298,0.416418 0.228504,0.141311 0.514133,0.141311 0.264583,0 0.466027,-0.112749 0.202947,-0.114251 0.315696,-0.321709 0.114252,-0.20896 0.114252,-0.491583 l 0.114252,0.02405 h -0.926041 v -0.330729 h 1.172584 V 31.0224 q 0,0.380338 -0.162358,0.661458 -0.160854,0.281119 -0.444981,0.435961 -0.282622,0.153338 -0.649431,0.153338 -0.408901,0 -0.718584,-0.192424 -0.308179,-0.192425 -0.48106,-0.547206 -0.171377,-0.354782 -0.171377,-0.841856 0,-0.487073 0.171377,-0.841855 0.172881,-0.354782 0.476551,-0.547206 0.305172,-0.192424 0.69904,-0.192424 0.243537,0 0.454001,0.07366 0.211967,0.07216 0.377331,0.205954 0.166868,0.132292 0.278113,0.317199 0.111245,0.183404 0.153338,0.407398 z"
         id="path35008" />
    </g>
    <g
       aria-label="A"
       id="text33504"
       style="font-size:4.23333px;line-height:2.11667px;font-family:Inter;-inkscape-font-specification:Inter;text-align:center;text-anchor:middle">
      <path
         d="m 64.684615,9.4768934 h -0.390861 l 1.130491,-3.0787853 h 0.384849 l 1.130491,3.0787853 H 66.548724 L 65.628696,6.8851816 h -0.02405 z m 0.144318,-1.2026505 h 1.575473 v 0.3307289 h -1.575473 z"
         id="path35005" />
    </g>
  </g>
</svg>
